<?xml version="1.0" standalone="no"?>
<!DOCTYPE svg PUBLIC "-//W3C//DTD SVG 20010904//EN"
 "http://www.w3.org/TR/2001/REC-SVG-20010904/DTD/svg10.dtd">
<svg version="1.0" xmlns="http://www.w3.org/2000/svg"
 width="420.000000pt" height="594.000000pt" viewBox="0 0 420.000000 594.000000"
 preserveAspectRatio="xMidYMid meet">

<g transform="translate(0.000000,594.000000) scale(0.100000,-0.100000)"
fill="#000000" stroke="none">
<path d="M2926 5129 c-93 -23 -273 -131 -436 -263 -186 -150 -321 -243 -444
-306 -112 -57 -208 -88 -417 -135 -418 -95 -492 -115 -619 -168 -115 -47 -188
-94 -269 -171 -90 -87 -151 -171 -195 -268 -63 -139 -71 -183 -71 -388 1 -205
9 -257 85 -530 22 -80 47 -176 55 -215 52 -251 69 -319 100 -411 60 -179 127
-293 249 -422 69 -72 208 -186 277 -227 108 -62 141 -79 204 -105 149 -60 230
-78 390 -86 261 -13 555 49 772 164 119 63 260 244 339 435 47 114 55 181 64
527 12 479 24 512 256 752 282 291 384 432 415 573 22 98 17 379 -9 497 -74
337 -251 607 -470 715 -63 32 -84 37 -155 39 -45 2 -100 -1 -121 -7z"/>
</g>
</svg>
